<svg width="12" height="12" viewBox="0 0 12 12" fill="none" xmlns="http://www.w3.org/2000/svg">
<path d="M1.00862 11.8801C1.30646 11.9978 1.63575 12.0298 1.95353 11.9718C2.27131 11.9139 2.56282 11.7687 2.79005 11.5552L6 8.60261L9.20994 11.5552C9.35961 11.6957 9.53791 11.8073 9.73453 11.8836C9.93114 11.9598 10.1422 11.9993 10.3554 11.9997C10.5745 11.9991 10.7914 11.9584 10.9935 11.8801C11.2938 11.7677 11.5505 11.5742 11.73 11.3248C11.9095 11.0755 12.0036 10.7818 11.9999 10.4822V2.52232C11.999 1.8536 11.7114 1.21251 11.2002 0.739654C10.6889 0.266801 9.99571 0.000801016 9.27267 0L2.72732 0C2.00428 0.000801016 1.3111 0.266801 0.799838 0.739654C0.288571 1.21251 0.000961077 1.8536 9.49873e-05 2.52232V10.4822C-0.00342487 10.782 0.0909533 11.0759 0.270889 11.3253C0.450824 11.5747 0.707943 11.768 1.00862 11.8801Z" fill="#5E60CE"/>
</svg>
