<svg width="12" height="12" viewBox="0 0 12 12" fill="none" xmlns="http://www.w3.org/2000/svg">
<path d="M10.4383 11.9983C10.2365 11.9978 10.0369 11.9606 9.85083 11.889C9.6648 11.8173 9.49611 11.7126 9.3545 11.5808L6 8.52427L2.64549 11.5828C2.43005 11.7832 2.15376 11.9194 1.85264 11.9737C1.55151 12.028 1.23952 11.9979 0.957329 11.8873C0.672341 11.7822 0.428542 11.6008 0.257769 11.3668C0.0869957 11.1328 -0.0028141 10.857 6.7219e-05 10.5755V2.49964C6.7219e-05 1.83669 0.287401 1.2009 0.798857 0.732127C1.31031 0.263354 2.004 0 2.72731 0L9.27269 0C9.63083 0 9.98547 0.064655 10.3164 0.190274C10.6472 0.315892 10.9479 0.500014 11.2011 0.732127C11.4544 0.96424 11.6553 1.2398 11.7923 1.54307C11.9294 1.84634 11.9999 2.17138 11.9999 2.49964V10.5755C12.003 10.8568 11.9135 11.1324 11.7431 11.3664C11.5728 11.6004 11.3294 11.7819 11.0448 11.8873C10.8527 11.9609 10.6465 11.9986 10.4383 11.9983ZM2.72731 0.999855C2.29332 0.999855 1.87711 1.15787 1.57024 1.43913C1.26336 1.7204 1.09096 2.10187 1.09096 2.49964V10.5755C1.09077 10.6588 1.11751 10.7403 1.16782 10.8096C1.21812 10.879 1.28974 10.9332 1.37361 10.9653C1.45748 10.9974 1.54985 11.006 1.63905 10.99C1.72825 10.974 1.81028 10.9341 1.87477 10.8754L5.61818 7.46542C5.72038 7.37231 5.85862 7.32004 6.00272 7.32004C6.14682 7.32004 6.28507 7.37231 6.38726 7.46542L10.1263 10.8744C10.1908 10.9331 10.2728 10.973 10.362 10.989C10.4512 11.005 10.5436 10.9964 10.6275 10.9643C10.7113 10.9322 10.783 10.878 10.8333 10.8086C10.8836 10.7393 10.9103 10.6578 10.9101 10.5745V2.49964C10.9101 2.10187 10.7377 1.7204 10.4308 1.43913C10.124 1.15787 9.70776 0.999855 9.27378 0.999855H2.72731Z" fill="#5E60CE"/>
</svg>
