<svg width="14" height="15" viewBox="0 0 14 15" fill="none" xmlns="http://www.w3.org/2000/svg">
<path d="M13.3866 1.22521C13.1817 1.01785 12.9267 0.866835 12.6464 0.786754C12.3661 0.706672 12.0699 0.700233 11.7863 0.768058L2.64227 2.69382C2.11568 2.76603 1.6197 2.98381 1.2102 3.32264C0.800699 3.66147 0.49394 4.10789 0.324467 4.61162C0.154994 5.11535 0.12954 5.65639 0.25097 6.1738C0.3724 6.69122 0.635892 7.16446 1.01177 7.54023L1.99362 8.52139C2.04676 8.57451 2.0889 8.63759 2.11763 8.70701C2.14637 8.77644 2.16113 8.85084 2.16107 8.92597V10.7363C2.16233 10.9908 2.22093 11.2418 2.33252 11.4706L2.32795 11.4746L2.34281 11.4895C2.51026 11.8261 2.78377 12.0984 3.12119 12.2643L3.13605 12.2792L3.14005 12.2746C3.36886 12.3862 3.61987 12.4448 3.87444 12.4461H5.68496C5.83644 12.4459 5.98177 12.506 6.08902 12.6129L7.07029 13.5941C7.33348 13.8602 7.64673 14.0715 7.992 14.216C8.33726 14.3605 8.70771 14.4352 9.08198 14.4358C9.39388 14.4354 9.70365 14.3845 9.99925 14.285C10.4984 14.1211 10.9419 13.821 11.2795 13.4185C11.6172 13.016 11.8357 12.5272 11.9104 12.0072L13.8392 2.84411C13.9105 2.55818 13.9063 2.25862 13.827 1.97481C13.7476 1.691 13.5959 1.43269 13.3866 1.22521ZM2.80287 7.71452L1.82045 6.73335C1.59169 6.51012 1.43135 6.22628 1.35827 5.91513C1.28518 5.60399 1.30237 5.27845 1.40782 4.97673C1.51006 4.6672 1.69907 4.39353 1.95235 4.18829C2.20564 3.98305 2.51255 3.85487 2.83659 3.81899L11.8898 1.91323L3.30293 10.5003V8.92597C3.3038 8.70102 3.26005 8.47812 3.17421 8.27018C3.08838 8.06224 2.96216 7.87338 2.80287 7.71452ZM10.7874 11.8118C10.7435 12.1274 10.6125 12.4245 10.4091 12.6699C10.2057 12.9152 9.93791 13.099 9.63585 13.2006C9.33378 13.3022 9.00937 13.3176 8.69904 13.2451C8.3887 13.1726 8.10472 13.015 7.87897 12.7901L6.89598 11.8072C6.73731 11.6477 6.54859 11.5212 6.34072 11.4351C6.13285 11.3489 5.90997 11.3049 5.68496 11.3055H4.11047L12.6985 2.72125L10.7874 11.8118Z" fill="#5E60CE"/>
</svg>
